<svg width="30" height="30" xmlns="http://www.w3.org/2000/svg"><path d="M29.65 16.277a15.51 15.51 0 0 1-.144 1.596 14.314 14.314 0 0 1-2.997 6.837 14.987 14.987 0 0 1-1.936 2.04 13.985 13.985 0 0 1-3.006 1.998 16.16 16.16 0 0 1-1.774.74c-.177.075-.37.1-.56.075a.653.653 0 0 1-.577-.615c-.009-.105-.007-.211-.007-.317 0-1.236.005-2.472 0-3.708 0-.345-.026-.69-.076-1.03a2.997 2.997 0 0 0-.901-1.795l.863-.132a8.168 8.168 0 0 0 3.09-1.094 5.074 5.074 0 0 0 2.153-2.603c.274-.716.45-1.465.526-2.227.068-.61.08-1.225.036-1.837a5.42 5.42 0 0 0-1.283-3.104 17.847 17.847 0 0 1-.166-.197.391.391 0 0 1-.028-.05 5.091 5.091 0 0 0-.16-3.884 1.798 1.798 0 0 0-1.192.073 10.29 10.29 0 0 0-2.336 1.09c-.163.1-.324.203-.516.324a16.913 16.913 0 0 0-2.43-.429 15.237 15.237 0 0 0-2.496 0c-.827.08-1.646.226-2.45.434l-.474-.3A10.487 10.487 0 0 0 8.39 7.047a1.889 1.889 0 0 0-1.172-.084 5.137 5.137 0 0 0-.145 3.883c-.203.271-.403.516-.58.777a5.239 5.239 0 0 0-.853 2.262 9.458 9.458 0 0 0 0 2.177 8.17 8.17 0 0 0 .67 2.54 5.104 5.104 0 0 0 2.293 2.447 8.64 8.64 0 0 0 3.162.97c.152.02.303.047.493.076a3.288 3.288 0 0 0-.915 1.937c-.298.16-.621.267-.956.318-.266.046-.532.053-.798.072a2.347 2.347 0 0 1-1.862-.746 5.717 5.717 0 0 1-.532-.67c-.178-.23-.316-.483-.508-.695a2.994 2.994 0 0 0-1.627-.965 1.309 1.309 0 0 0-.71.02 1.454 1.454 0 0 0-.182.094.474.474 0 0 0 .185.454c.124.133.266.248.422.342.271.163.511.373.709.62.37.467.665.987.876 1.543a2.714 2.714 0 0 0 2.203 1.718 6.674 6.674 0 0 0 1.596.12c.266-.016.532-.054.799-.083.094-.01.19-.023.313-.038.008.095.02.177.02.258.005.661.01 1.323.012 1.984 0 .19 0 .382-.006.572a.664.664 0 0 1-.755.621 1.295 1.295 0 0 1-.362-.078 14.583 14.583 0 0 1-2.785-1.283 14.19 14.19 0 0 1-3.155-2.564A16.222 16.222 0 0 1 2.564 23.5a14.447 14.447 0 0 1-1.315-2.547 14.818 14.818 0 0 1-.814-2.985 10.98 10.98 0 0 1-.126-1.084 16.013 16.013 0 0 1 0-2.64 14.484 14.484 0 0 1 2.146-6.419 14.67 14.67 0 0 1 6.531-5.698 13.976 13.976 0 0 1 3.565-1.057 15.902 15.902 0 0 1 2.89-.177c.66.017 1.318.077 1.97.177a13.83 13.83 0 0 1 3.246.927 14.924 14.924 0 0 1 3.672 2.222 14.278 14.278 0 0 1 2.294 2.368 14.8 14.8 0 0 1 2.202 4.011 15.806 15.806 0 0 1 .866 4.278c0 .353-.009.831-.042 1.4z" fill="#FFF"/></svg>