<svg width="30" height="29" xmlns="http://www.w3.org/2000/svg"><path d="M16.88 12.567l.657-.595a7.957 7.957 0 0 1 9.392-1.347 4.604 4.604 0 0 1 2.29 3.556c.063.47.09.943.085 1.416.006 4.173.006 8.346 0 12.518 0 .445 0 .446-.446.448-.938 0-1.876.009-2.813.02a54.89 54.89 0 0 0-1.988.05c-.277.013-.357-.071-.357-.352.01-3.278.01-6.555 0-9.832a7.49 7.49 0 0 0-.139-1.407 2.335 2.335 0 0 0-2.178-2.043 9.326 9.326 0 0 0-2.35.039 1.955 1.955 0 0 0-1.816 1.912c-.071.52-.109 1.045-.113 1.57-.01 3.203 0 6.407 0 9.611 0 .43 0 .43-.428.433-1.265 0-2.53.009-3.793.021-.42 0-.841.022-1.26.044-.194.01-.273-.07-.26-.257V9.973c0-.46 0-.469.455-.476 1.559-.025 3.117-.039 4.674-.07.273 0 .365.075.365.357-.017.78-.007 1.56 0 2.34-.007.12.009.24.023.443zM6.337 19.005v9.168c0 .294-.063.396-.38.397-1.674.005-3.35.026-5.024.062-.315.008-.384-.094-.382-.391.01-6.111.011-12.223.003-18.337 0-.31.07-.42.398-.421 1.676-.005 3.35-.026 5.025-.061.307 0 .365.106.365.383-.009 3.065-.005 6.133-.005 9.2zm.329-15.607a3.155 3.155 0 1 1-6.309-.045 3.155 3.155 0 1 1 6.309.045z" fill="#FFF"/></svg>