<svg width="30" height="25" xmlns="http://www.w3.org/2000/svg"><path d="M9.04 19.078a6.416 6.416 0 0 1-5.688-4.207h2.462l.062-.18a6.237 6.237 0 0 1-4.668-5.846l2.48.662.134-.139C1.245 7.167.646 4.538 2.01 1.318A17.711 17.711 0 0 0 14.606 7.69c0-.778-.04-1.49.007-2.194A6.017 6.017 0 0 1 20.145.234a6.241 6.241 0 0 1 4.542 1.547c.233.185.534.26.827.207.832-.234 1.64-.561 2.454-.86.232-.086.452-.204.804-.365A6.638 6.638 0 0 1 26.5 3.84l.072.163 2.824-.717.109.14a24.548 24.548 0 0 1-2.101 2.117 1.88 1.88 0 0 0-.748 1.634 17.001 17.001 0 0 1-2.409 8.612 16.28 16.28 0 0 1-12.671 8.359 17.21 17.21 0 0 1-10.59-1.996c-.134-.075-.27-.148-.403-.228a3.485 3.485 0 0 1-.28-.245 12.703 12.703 0 0 0 8.737-2.6z" fill="#FFF"/></svg>