<svg id="Layer_1" data-name="Layer 1" xmlns="http://www.w3.org/2000/svg" viewBox="0 0 300 180"><defs><style>.cls-1{fill:#dae1e5;}.cls-2{fill:#f2f6f9;}.cls-3{fill:#ed5735;}.cls-4{fill:#ff8b68;}.cls-5{fill:#ff6e42;}.cls-6{fill:#fff;}</style></defs><title>yugabyteDB-logo-RGB</title><path class="cls-1" d="M209.61,90a90,90,0,1,1-90-90,90,90,0,0,1,90,90"/><path class="cls-2" d="M75.72,165.46s0,.06,0,.09l.4.11Z"/><path class="cls-2" d="M70.06,38.48l-.18-.36c1.5-.23,1.6-1.29,2.75-1.68,1.3-.43.85,0,2.14,0,1,0,1.66.71,2.85.16a4,4,0,0,1-1.23,1.2,9.21,9.21,0,0,1-3.13,1.67A3,3,0,0,1,70.06,38.48Z"/><path class="cls-2" d="M88.08,118.78a4.53,4.53,0,0,1-.9,2.16A21.9,21.9,0,0,0,84,130.79c-.24,3.32-.1,7.42-3,9.05-1.65.92-4,.76-5.07,2.31a5,5,0,0,0-.67,1.61q-1.08,3.88-2.14,7.77c-.92-.08-1.86-.18-2.77-.29a2,2,0,0,1,1.18,2.82,2.35,2.35,0,0,0-3,1.14,4.81,4.81,0,0,0-.17,3.45,10.07,10.07,0,0,0,7.24,6.92c-.59,1.13-2.4.64-3.5-.11a42,42,0,0,1-16.57-22.6c-1-3.22-1.57-6.64-3.45-9.41-1.57-2.34-3.93-4-5.5-6.39-2.2-3.36-2.61-7.72-5.16-10.8-1.43-1.75-3.63-3.9-2.37-5.78.51-.77,1.59-1.51,1.16-2.33-.14-.26-.43-.42-.65-.65-.86-.92-.27-2.36.16-3.55a13.87,13.87,0,0,0,.41-6.45,18.54,18.54,0,0,1-4.9-7c-.63-1.63-1.47-3.67-3.22-3.69-.45-1.26-.92-2.53-1.37-3.79a1.3,1.3,0,0,1-1.1.79A89.65,89.65,0,0,1,52.24,30a8.87,8.87,0,0,0,.86-.45c3.07-1.79,5.52-4.48,8.49-6.44a3.2,3.2,0,0,1,2.06-.72c.73.06,1.43.81,1.16,1.51a1.52,1.52,0,0,1-.59.69,62.58,62.58,0,0,1-11.35,7.69,2.44,2.44,0,0,0-1.21,1,1.71,1.71,0,0,0,1.16,2.18,5,5,0,0,0,2.75-.08A4.43,4.43,0,0,0,55,39.14c.83.08,1.1-1.06,1.34-1.85,1-3.16,6.06-4.45,5.73-7.77,1.36.71,2.75-.88,3.59-2.19s2.69-2.62,3.71-1.46c.05.65.13,1.3.19,1.95L75,26.45A2.6,2.6,0,0,0,77.39,31c0,1-.88,1.69-1.65,2.26A22.59,22.59,0,0,1,69.34,37l.53,1.1a.61.61,0,0,1-.18,0c-1.47.14-3-.92-4.58-.72-1,.13-2.14.13-2.69,1.1-.08.13-.43,1.84-.19,1.7l2.55-1.47A4.08,4.08,0,0,1,65,41a5,5,0,0,1,3,.67,6.05,6.05,0,0,1-5.84,3.53c0-.74-.07-1.47-.09-2.2-2-.17-3.62,1.55-4.62,3.26S55.66,50,54,51.06a29.23,29.23,0,0,1-3.36,1.53c-1.07.59-2.07,1.72-1.85,2.92a8.47,8.47,0,0,1,.46,1.69c-.07,1.1-1.35,1.61-2.2,2.32-1.47,1.23-1.84,3.47-3.4,4.55-1.14.79-2.66.78-4,1.18S37,67,37.53,68.27a1.19,1.19,0,0,1-1.51-1,44.69,44.69,0,0,0-4.51,14.76c1.16.81,2.34-1,2.56-2.45s1.47-3.24,2.61-2.41c-.27,2-.53,4-.79,6A1.84,1.84,0,0,0,36,84.39c.23.42.71.6,1.09.91,1,.9.89,2.49.95,3.85a10,10,0,0,0,1.49,4.73c-.08-.29-.14-.57-.2-.86a5.7,5.7,0,0,0,4.44-1.37,6.86,6.86,0,0,1,2-1.59,4.14,4.14,0,0,1,2.55.14c2.59.71,5.34,1.51,7.07,3.54.88,1,1.43,2.35,2.47,3.2,2.36,2,6.36,1.12,8.52,3.34,1.73,1.79,1.41,4.68.94,7.15-1.18-.65-2.77,1-2.07,2.14a3.4,3.4,0,0,1,2.28-1.43c.94,0,1.76,1.27,1.06,1.86,1.63-2.08,5.62-1.22,6.26,1.36,2.28.17,4.58.33,6.86.51C81.21,115.22,88.22,115.42,88.08,118.78Z"/><path class="cls-2" d="M74.19,24.5A1.75,1.75,0,1,1,73,21.23c.61-.14,1.45-.07,1.63-.66a1.81,1.81,0,0,0,0-.57,2.59,2.59,0,0,1,2.06-2.32,7.59,7.59,0,0,1,3.31.15,4.08,4.08,0,0,1,.31,2.62l-2.25.09c.07,1.25,0,2.82-1.21,3.28s-2.39-.35-3.25.34"/><path class="cls-2" d="M85.87,12.06c2-1,3.78-2.53,5.8-3.57a43.71,43.71,0,0,1,14.48-3.68c8.88-.28,14.71,1.07,23.59.79L123.56,9c-1.68.92-3.59,1.87-5.43,1.35a2.87,2.87,0,0,0,2.79,2.84c-3.65,2.26-8.71,0-12.56,1.85-1.61.79-2.92,2.29-4.69,2.58-1,.16-2.1-.12-3.12.11-1.71.37-2.78,2-4,3.2-1.45,1.39-3.59,2.34-5.49,1.68s-2.89-3.49-1.37-4.81a12.8,12.8,0,0,1,2.71-1.22c.88-.45,1.58-1.66.92-2.4-.29-.32-.76-.44-1-.79s-.26-.9-.5-1.31c-.9-1.58-3.41.55-5.12-.09"/><path class="cls-2" d="M112.84,19.55a18.06,18.06,0,0,0,3.37-1.5,4.19,4.19,0,0,1,3.56-.28c.32.82-.62,1.56-1.45,1.85a10,10,0,0,1-5,.44"/><path class="cls-2" d="M185.46,28.51a3,3,0,0,1-1-.06c-1.53-.33-2.69-1.51-4-2.36a10.61,10.61,0,0,0-10.39-.63,6.19,6.19,0,0,0,1.07-3.87l-.47.16c-5.34-3.1-11.6-6.31-17.42-4.23-1.35.49-2.57,1.23-3.93,1.69s-3.06.72-4.3,1.62-1.93,2.87-.85,4c.92.92,2.39.67,3.67.79s2.71,1.39,2,2.47q-8.37,3.91-16.77,7.88a5.72,5.72,0,0,1,3.72,6.39c-1.88.33-3.69-.81-5.59-.93A5.15,5.15,0,1,0,131,51.67c2.05,0,4.07-1.27,6.07-.74.08-1.88,1.36-3.47,2.68-4.81,2.57-2.57,6.23-4.9,9.66-3.63a10.79,10.79,0,0,1,3,1.91q3.09,2.45,6.18,4.93c.66-.67,1.3-1.35,2-2l3.38,3.56c.57-.38,1.16-.75,1.73-1.14.41,1.06.84,2.1,1.25,3.16.16-1.16.3-2.3.44-3.45a8.33,8.33,0,0,0,4-.53,2.78,2.78,0,0,0,1.6-3.32c-.26-.67-.89-1.2-1-1.92-.26-1.42,1.77-2.4,3.1-1.75s2,2.12,2.51,3.48c.3-1.38.59-2.75.9-4.13a32.78,32.78,0,0,0,5.39,9.23,22.21,22.21,0,0,0-12.49,1.27,6.58,6.58,0,0,0,5.53,2.71c1,0,2-.24,2.75.36a3,3,0,0,1,.79,1.92c.33,2,.66,3.89,1,5.83-2.2-1.81-5.38-1.61-8.25-1.67s-6.24-.87-7.3-3.54a5.75,5.75,0,0,0-1.32,4.83c-3-.71-6.4-1.84-7.26-4.78a4.63,4.63,0,0,1-5.84-3c-.23-.84-.29-1.86-1-2.31a2.53,2.53,0,0,0-1.55-.16l-13.22,1.52a18.86,18.86,0,0,0-7,1.75c-2.12,1.16-3.81,3.45-3.56,5.86a27.35,27.35,0,0,0-9.82,10,6.12,6.12,0,0,0-1.08,4.14c.2,1.1.94,2,1.16,3.12.39,1.85-.67,3.64-1.11,5.48C112.9,89,116.86,94,120.53,97.9c1.73,1.84,3.74,3.83,6.26,3.93a11.48,11.48,0,0,0,4.53-1.2,32.65,32.65,0,0,1,13.26-2.23c-1,.79,0,2.53,1.31,2.79s2.62-.15,3.85.28c2.79,1,2.41,5.09,1.14,7.77l1.94-.37-1,2.67c3.83.48,5.28,5.52,4.39,9.29s-3.12,7.23-3.18,11.11a19.83,19.83,0,0,0,1.29,6.19q2.44,7.67,4.9,15.36c4.57.55,7.19-5.26,11.43-7.08,1.59-.69,3.46-.83,4.71-2s.81-3.81-.73-3.81a4.58,4.58,0,0,0,3.95-4.26,17.39,17.39,0,0,1,0-1.77,5.94,5.94,0,0,1,1.17-2.29c3.24-4.64,5.34-10,7.44-15.22.54-1.41,1.1-2.79,1.64-4.2,2.08-5.24,4.14-10.46,6.21-15.7.81-2.06,1.63-4.09,2.44-6.16-1.12,1.86-4.05,1.62-5.73.23s-2.57-3.49-3.89-5.22c-1.12-1.49-2.64-2.81-3.17-4.62a28.68,28.68,0,0,1-.42-3.24c-.42-2.35-2-4.3-3-6.42s-1.61-4.87-.13-6.73a256,256,0,0,1,11.71,23.07,5,5,0,0,1,2.43-2.88c.83-.45,1.77-.63,2.65-1a6.53,6.53,0,0,0,0-12,25.75,25.75,0,0,1-3.59-1.32c-1.09-.65-1.89-2.14-1.2-3.22s2.23-1,3.3-.43,1.88,1.59,2.9,2.26c.73.49,1.59.81,2.38,1.26,4.3,2.47,5.36,8.07,6.27,13,.49,2.63,1,5.24,1.69,7.81,0-.56,0-1.13,0-1.67A89.79,89.79,0,0,0,185.46,28.51Zm8.25,29.61a3.22,3.22,0,0,1-1.62-.8A4.4,4.4,0,0,1,190.32,55c-.27-1.14.28-2.45-.33-3.46a4.57,4.57,0,0,0-1.22-1.14,6.45,6.45,0,0,1-2.25-3.57c-.26-1.22.12-2.85,1.37-3a1.44,1.44,0,0,1,1.5.77l-.83.45a1.93,1.93,0,0,1,1,3.2c-.14.14-.33.26-.33.47a.42.42,0,0,0,.19.32c.87,1,2.18,1.31,3.32,1.92s2.26,1.69,2.08,2.95l-1.08.41c-.38.39-.07,1.08.33,1.46s.94.77,1,1.34A1.18,1.18,0,0,1,193.71,58.12Z"/><path class="cls-2" d="M194.29,120.82l-1.47,1a4,4,0,0,1-2.25,4.62c-.92.37-2.15.54-2.46,1.48s.36,1.61.45,2.45c.13,1.38-1.16,2.42-2.1,3.45s-1.43,3-.18,3.6a2.68,2.68,0,0,0,.94.2,5.84,5.84,0,0,0,3.94-.63c3.17-2.26.16-8.4,3.29-10.72.44-.33,1-.57,1.24-1.06C196.43,123.79,193.71,122.34,194.29,120.82Z"/><path class="cls-3" d="M187.61,58,175.7,44.28l-5.61-6.45-5.26,4.57c-3.39,3-1,11.3,5.43,18.64S184.57,72,188,69l5.26-4.57Z"/><path class="cls-4" d="M193.22,64.44c-3.39,3-11.31-.62-17.7-8s-8.82-15.69-5.43-18.64L208.41,4.52l23.13,26.61Z"/><path class="cls-3" d="M196,50.68,184.11,37l-5.61-6.46-5.26,4.58c-3.39,2.94-1,11.29,5.43,18.63s14.31,10.92,17.7,8l5.26-4.58Z"/><ellipse class="cls-4" cx="190.06" cy="43.83" rx="8.13" ry="17.63" transform="translate(17.87 135.44) rotate(-41)"/><path class="cls-3" d="M204.48,43.32l-11.91-13.7L187,23.16l-5.26,4.58c-3.39,2.94-1,11.29,5.43,18.64s14.32,10.91,17.7,8l5.27-4.58Z"/><ellipse class="cls-4" cx="198.53" cy="36.47" rx="8.13" ry="17.63" transform="translate(24.77 139.19) rotate(-41)"/><path class="cls-3" d="M214.27,34.81l-11.91-13.7-5.61-6.45-5.26,4.57c-3.39,2.95-1,11.29,5.43,18.64s14.31,10.92,17.7,8l5.26-4.57Z"/><ellipse class="cls-4" cx="208.31" cy="27.96" rx="8.13" ry="17.63" transform="translate(32.75 143.52) rotate(-41)"/><path class="cls-4" d="M231.54,31.13c-3.39,2.95-10-1.77-16.38-9.12S205,7.47,208.41,4.52c7.58-6.59,30.27-3,30.27-3S239.12,24.55,231.54,31.13Z"/><path class="cls-4" d="M208.84,73.05c5.13-4.46,6.87-28.15,6.87-28.15L188,69l11,12.64Z"/><rect class="cls-3" x="187.39" y="70.27" width="16.74" height="6.11" transform="translate(122.67 -122.52) rotate(49)"/><path class="cls-4" d="M163.74,21.17c5.13-4.46,28.83-2.88,28.83-2.88L164.83,42.4l-11-12.63Z"/><rect class="cls-3" x="153.27" y="31.03" width="16.74" height="6.11" transform="translate(241.97 178.44) rotate(-131)"/><path class="cls-5" d="M155.9,77.92c-7.37,7.2-14.91,14.24-22.44,21.29q-11.52,10.33-23.54,20.11c-8,6.55-16.2,12.81-24.51,19S68.52,150.21,59.8,155.8a276.24,276.24,0,0,1-27.15,15.3,100,100,0,0,1-14.74,5.78,31.76,31.76,0,0,1-8.21,1.39,11.5,11.5,0,0,1-4.72-.9,6.64,6.64,0,0,1-2.27-1.66,7.53,7.53,0,0,1-.84-1.19,7.11,7.11,0,0,1-.53-1.3,10.45,10.45,0,0,1-.1-4.8,22.06,22.06,0,0,1,1.22-4.06,45.67,45.67,0,0,1,3.66-7.14,124.78,124.78,0,0,1,9.11-12.72,258.87,258.87,0,0,1,21.06-22.71c-6.54,8-13,16-18.92,24.33A124.65,124.65,0,0,0,9.23,159a48.74,48.74,0,0,0-3.07,6.74,17.62,17.62,0,0,0-.87,3.37,6.37,6.37,0,0,0,.12,2.84,2.13,2.13,0,0,0,1.36,1.38,7.22,7.22,0,0,0,2.85.36,28.31,28.31,0,0,0,6.93-1.39,97.62,97.62,0,0,0,13.84-5.84,292.68,292.68,0,0,0,26.49-15.26C65.55,145.75,74,140,82.4,134.08s16.66-12,24.91-18.1,16.37-12.42,24.43-18.81S147.73,84.23,155.9,77.92Z"/><path class="cls-6" d="M323.86,147.68a2.45,2.45,0,0,1-.84-1.83,5.23,5.23,0,0,1,.52-2.09l10.3-24.13-25-59.1a4.86,4.86,0,0,1-.52-1.83,3.45,3.45,0,0,1,.91-2,2.56,2.56,0,0,1,1.95-.85H322a3.52,3.52,0,0,1,3.39,2.48l17.36,42.53,17.61-42.53A4,4,0,0,1,364,55.83h10.57a2.65,2.65,0,0,1,1.95.79,2.47,2.47,0,0,1,.79,1.82,5.23,5.23,0,0,1-.53,2.09L339.85,146a3.71,3.71,0,0,1-3.66,2.48H325.76A2.75,2.75,0,0,1,323.86,147.68Z"/><path class="cls-6" d="M394.77,117.15q-6.91-7.83-6.92-21.53V59a3,3,0,0,1,.92-2.29,3.13,3.13,0,0,1,2.21-.85h11.75A3.14,3.14,0,0,1,405.86,59V94.84q0,16.05,14,16,6.78,0,10.76-4.31t4-11.74V59a3,3,0,0,1,.91-2.29,3.17,3.17,0,0,1,2.22-.85H449.3A2.93,2.93,0,0,1,452.43,59v61.57a3.13,3.13,0,0,1-.85,2.22,3,3,0,0,1-2.28.91H438.47a3.11,3.11,0,0,1-3.13-3.13v-5.35Q428.17,125,413.68,125,401.68,125,394.77,117.15Z"/><path class="cls-6" d="M481.52,148.52q-7.17-3.84-10.17-8.8c-2-3.31-3-6.13-3-8.48a2.8,2.8,0,0,1,.92-2.15,3.13,3.13,0,0,1,2.22-.85h11.61a3.48,3.48,0,0,1,2,.58,4.18,4.18,0,0,1,1.37,2.16,15.22,15.22,0,0,0,4.3,5.8c1.92,1.61,4.87,2.42,8.87,2.42q7.83,0,11.48-3.46t3.66-12.07V114.8q-7,8.36-20,8.35-13.57,0-20.42-8.22T467,92.49L466.91,89l.13-3.52q.52-14,7.44-22.44t20.35-8.48A26.78,26.78,0,0,1,507,57.14a24.44,24.44,0,0,1,8.61,7V59.1a3.08,3.08,0,0,1,1-2.35,3.23,3.23,0,0,1,2.28-.92h10.7a3,3,0,0,1,2.22.92,3.21,3.21,0,0,1,.91,2.35l.13,62.88q0,14.47-8.09,22.43t-24.39,8Q488.7,152.37,481.52,148.52Zm29.22-43.89a20.1,20.1,0,0,0,4-11.49c.08-.69.13-2.08.13-4.17s0-3.48-.13-4.17a20,20,0,0,0-4-11.48q-3.64-4.71-11-4.7-14.08,0-14.87,17.22L484.78,89q0,20.36,15,20.35Q507.09,109.32,510.74,104.63Z"/><path class="cls-6" d="M557.51,122.3a22,22,0,0,1-8.74-7.24,17.7,17.7,0,0,1,4-24.39q7.17-5.49,19.7-7.44l17.87-2.61V77.88c0-3.74-1-6.56-2.87-8.48s-5-2.87-9.13-2.87a13.24,13.24,0,0,0-6.91,1.57,21.55,21.55,0,0,0-4.24,3.19L565,73.45a2,2,0,0,1-2,1.56H552.88a2.88,2.88,0,0,1-2-.78,2.69,2.69,0,0,1-.85-2.09c.09-2.17,1.15-4.63,3.2-7.37a24.88,24.88,0,0,1,9.45-7.17q6.39-3.08,15.79-3.07,15.39,0,22.44,6.91t7,18.14v41a3.16,3.16,0,0,1-.84,2.22,3,3,0,0,1-2.29.91H594a3,3,0,0,1-2.21-.91,3,3,0,0,1-.92-2.22v-5.09a21.33,21.33,0,0,1-8.08,6.85,28.49,28.49,0,0,1-13,2.68A27.76,27.76,0,0,1,557.51,122.3Zm28.38-14.54q4.56-4.7,4.56-13.57V91.58l-13,2.09q-15,2.34-15,10a7.31,7.31,0,0,0,3.46,6.46,14.71,14.71,0,0,0,8.29,2.28A15.67,15.67,0,0,0,585.89,107.76Z"/><path class="cls-6" d="M641.59,115.71v4.83a3.06,3.06,0,0,1-.91,2.22,3.19,3.19,0,0,1-2.35.91H627.89a3,3,0,0,1-2.22-.91,3.06,3.06,0,0,1-.91-2.22V34.18a3,3,0,0,1,.91-2.28,3.13,3.13,0,0,1,2.22-.85h11.35a2.93,2.93,0,0,1,3.13,3.13v29q7.3-8.61,20-8.61,13.18,0,20.29,8.54t7.5,22.38c.09,1,.13,2.48.13,4.3s0,3.18-.13,4.31q-.52,14.09-7.57,22.5T662.33,125Q648.77,125,641.59,115.71Zm30.66-22c.08-.87.13-2.18.13-3.92s0-3-.13-3.91q-.91-17.22-14.87-17.22-7.18,0-11,4.56a18,18,0,0,0-4,11.09c-.08,1-.13,2.74-.13,5.09s0,3.92.13,5a20.22,20.22,0,0,0,3.92,11.74q3.65,4.83,11.09,4.83Q671.33,110.89,672.25,93.67Z"/><path class="cls-6" d="M712.49,147.68a2.45,2.45,0,0,1-.84-1.83,5.23,5.23,0,0,1,.52-2.09l10.3-24.13-25-59.1a4.92,4.92,0,0,1-.53-1.83,3.52,3.52,0,0,1,.92-2,2.56,2.56,0,0,1,1.95-.85H710.6A3.52,3.52,0,0,1,714,58.31l17.36,42.53L749,58.31a4,4,0,0,1,3.65-2.48h10.57a2.65,2.65,0,0,1,2,.79,2.47,2.47,0,0,1,.79,1.82,5.23,5.23,0,0,1-.53,2.09L728.47,146a3.69,3.69,0,0,1-3.65,2.48H714.39A2.75,2.75,0,0,1,712.49,147.68Z"/><path class="cls-6" d="M790.05,117.48q-6-6.2-6-18.2V69.79H773.74a3,3,0,0,1-2.21-.91,3,3,0,0,1-.92-2.22V59a3,3,0,0,1,.92-2.22,3,3,0,0,1,2.21-.92h10.31V34.18A2.94,2.94,0,0,1,785,31.9a3.13,3.13,0,0,1,2.22-.85H798a3.08,3.08,0,0,1,2.28.85,3,3,0,0,1,.85,2.28V55.83h16.31A3.14,3.14,0,0,1,820.58,59v7.69a3.12,3.12,0,0,1-3.13,3.13H801.14V97.84q0,5.61,2,8.48c1.3,1.92,3.43,2.87,6.39,2.87h9.13a3,3,0,0,1,2.28.85,3.08,3.08,0,0,1,.85,2.28v8.22a3.13,3.13,0,0,1-.85,2.22,2.94,2.94,0,0,1-2.28.91h-10.7Q796.06,123.67,790.05,117.48Z"/><path class="cls-6" d="M839.56,116.63q-8.55-8.35-9.07-23.75l-.13-3.26q0-16.31,8.55-25.7t23.67-9.39q15.52,0,23.94,9.39t8.42,25v2.74a3,3,0,0,1-.92,2.22,3.16,3.16,0,0,1-2.34.91H848.36v1a20.25,20.25,0,0,0,4,12.07,12.26,12.26,0,0,0,10.24,4.76,14.73,14.73,0,0,0,12.14-6,7.27,7.27,0,0,1,1.82-1.76,5.57,5.57,0,0,1,2.22-.32h11.48a3.18,3.18,0,0,1,2,.65,2.15,2.15,0,0,1,.85,1.82q0,3.14-3.72,7.37a30.79,30.79,0,0,1-10.63,7.38,38.69,38.69,0,0,1-16,3.13Q848.1,125,839.56,116.63Zm37.37-32.88v-.26q0-7.69-3.84-12.33a13,13,0,0,0-10.51-4.63,12.75,12.75,0,0,0-10.43,4.63q-3.79,4.64-3.79,12.33v.26Z"/><path class="cls-5" d="M912.9,122.69a3.09,3.09,0,0,1-1-2.28V35.74a3.39,3.39,0,0,1,.91-2.41,3.08,3.08,0,0,1,2.35-1h34.31q19.31,0,30,9.2T990.71,68q.13,3.78.14,10c0,4.18-.05,7.48-.14,9.92q-1.31,35.75-40.57,35.74h-35A3.09,3.09,0,0,1,912.9,122.69Zm36.59-18.59q8.22,0,12.13-3.91t4.18-12.52q.26-3.8.26-9.79t-.26-9.65q-.27-8.36-4.5-12.33t-12.46-4h-12.4V104.1Z"/><path class="cls-5" d="M1006.69,122.69a3.12,3.12,0,0,1-1-2.28V35.74a3.39,3.39,0,0,1,.91-2.41,3.08,3.08,0,0,1,2.35-1h40.31q16.56,0,24.66,6.79t8.08,19.3a17.86,17.86,0,0,1-3.32,10.83,21.45,21.45,0,0,1-7.37,6.65,21.11,21.11,0,0,1,9,7.77A21.33,21.33,0,0,1,1084,95.88q0,13.19-8.67,20.49t-24.86,7.3H1009A3.13,3.13,0,0,1,1006.69,122.69Zm39.86-54.2c3.22,0,5.69-.87,7.44-2.61a9.21,9.21,0,0,0,2.61-6.78,8.89,8.89,0,0,0-2.55-6.59c-1.69-1.7-4.2-2.55-7.5-2.55h-16.31V68.49Zm1.17,37.57q5.1,0,7.9-2.94a10.83,10.83,0,0,0-.07-14.61,10.46,10.46,0,0,0-7.83-2.93h-17.48v20.48Z"/></svg>